<?xml version="1.0" standalone="no"?>
<!DOCTYPE svg PUBLIC "-//W3C//DTD SVG 20010904//EN"
 "http://www.w3.org/TR/2001/REC-SVG-20010904/DTD/svg10.dtd">
<svg version="1.0" xmlns="http://www.w3.org/2000/svg"
 width="309.000000pt" height="198.000000pt" viewBox="0 0 309.000000 198.000000"
 preserveAspectRatio="xMidYMid meet">

<g transform="translate(0.000000,198.000000) scale(0.100000,-0.100000)"
fill="#000000" stroke="none">
<path d="M557 1181 c-22 -25 -38 -54 -42 -78 -4 -21 -9 -45 -13 -53 -3 -8 -7
-34 -8 -58 l-2 -42 75 -37 c41 -20 88 -49 105 -65 31 -29 48 -35 48 -18 0 14
109 85 152 99 40 13 56 29 42 40 -11 7 -11 41 -1 57 4 7 0 14 -8 18 -9 3 -15
19 -15 41 0 44 -21 86 -56 114 -46 36 -54 29 -54 -49 0 -69 0 -70 -22 -59 -13
7 -43 9 -75 6 -49 -5 -53 -4 -54 16 -4 95 -5 102 -20 105 -9 2 -32 -15 -52
-37z"/>
<path d="M1730 1066 l0 -126 80 0 c64 0 80 3 80 15 0 12 -13 15 -60 15 l-59 0
-3 107 c-3 93 -5 108 -20 111 -16 3 -18 -8 -18 -122z"/>
<path d="M1055 1075 c-28 -27 -33 -79 -11 -108 29 -37 116 -38 130 -1 5 13 -2
14 -37 9 -33 -5 -46 -3 -56 9 -12 14 -8 16 35 16 68 0 81 10 64 49 -23 56 -83
69 -125 26z m90 -35 c4 -6 -8 -10 -29 -10 -40 0 -55 14 -29 29 18 9 46 0 58
-19z"/>
<path d="M1238 1089 c-30 -17 -11 -35 32 -31 25 3 40 0 40 -7 0 -6 -8 -11 -17
-11 -29 0 -83 -38 -83 -59 0 -23 22 -42 47 -42 107 1 104 0 99 29 -2 15 -5 44
-5 64 -1 20 -8 44 -17 52 -17 18 -70 21 -96 5z m82 -93 c0 -15 -21 -26 -51
-26 -26 0 -24 19 4 30 32 13 47 12 47 -4z"/>
<path d="M1405 1084 c-26 -26 -15 -57 28 -77 45 -21 40 -42 -9 -32 -45 8 -47
-18 -3 -34 38 -13 82 3 87 32 5 23 -22 53 -54 61 -36 9 -29 26 11 26 40 0 49
24 13 34 -37 10 -56 7 -73 -10z"/>
<path d="M1540 1090 c0 -6 13 -37 29 -68 l29 -58 -23 -40 c-37 -60 -39 -64
-26 -77 17 -17 34 5 95 128 36 73 51 113 45 120 -11 11 -49 -28 -49 -50 0 -7
-6 -17 -13 -23 -10 -9 -18 -1 -35 33 -19 40 -52 62 -52 35z"/>
<path d="M1938 1070 c-25 -26 -29 -36 -24 -63 11 -57 74 -85 127 -57 33 18 21
30 -24 24 -32 -5 -46 -2 -56 10 -12 14 -10 16 17 16 16 0 44 3 61 6 29 6 32
10 26 33 -8 33 -40 61 -72 61 -14 0 -38 -13 -55 -30z m92 -30 c0 -6 -18 -10
-40 -10 -30 0 -38 3 -34 14 10 27 74 23 74 -4z"/>
<path d="M2128 1093 c-10 -2 -18 -11 -18 -20 0 -12 7 -14 33 -9 17 3 39 1 47
-4 18 -11 16 -12 -40 -30 -42 -14 -45 -17 -45 -50 l0 -35 67 -1 67 -1 -6 66
c-7 85 -30 104 -105 84z m72 -98 c0 -9 -10 -19 -22 -24 -43 -16 -68 12 -25 29
33 13 47 12 47 -5z"/>
<path d="M2278 1080 c0 -8 -1 -24 -1 -35 2 -94 4 -105 18 -105 10 0 15 15 17
58 3 56 3 57 36 60 29 3 36 10 30 30 -2 4 -24 7 -50 7 -36 1 -48 -3 -50 -15z"/>
<path d="M2420 1018 c0 -63 3 -78 15 -78 12 0 15 13 15 55 0 51 2 56 26 65 37
15 51 -1 60 -66 4 -36 11 -54 20 -54 23 0 19 102 -5 131 -16 20 -29 24 -75 24
l-56 1 0 -78z"/>
</g>
</svg>
